<svg id="Mustache" xmlns="http://www.w3.org/2000/svg" viewBox="0 0 121.24 48.11"><title>Mustache_js</title><path d="M67.83,33.67A56.94,56.94,0,0,0,69,42a17.53,17.53,0,0,0,2.69,6.38,11.73,11.73,0,0,0,5,4,19.22,19.22,0,0,0,7.75,1.36,76.87,76.87,0,0,0,8.07-.48,77.18,77.18,0,0,1,8.4-.49,30.35,30.35,0,0,1,11.77,1.91,16.52,16.52,0,0,1,7.09,5.68,22.62,22.62,0,0,1,3.51,9.11,71.38,71.38,0,0,1,1,12.28h-5.19q-.14-2.64-.58-5.87a15.12,15.12,0,0,0-1.82-5.56,9.71,9.71,0,0,0-4.34-3.87,17.39,17.39,0,0,0-7.46-1.36H89.75A32.41,32.41,0,0,1,78.4,63.42a18,18,0,0,1-7.2-4.74,21.54,21.54,0,0,1-4.14-7.11,57.9,57.9,0,0,1-2.4-8.81h-2a52.11,52.11,0,0,1-2.44,9,22.09,22.09,0,0,1-4.11,7,17.37,17.37,0,0,1-7.26,4.81,33.58,33.58,0,0,1-11.28,1.62H22.39a16.89,16.89,0,0,0-7.62,1.45,9.57,9.57,0,0,0-4.12,3.78A17,17,0,0,0,9,75.77a53.75,53.75,0,0,0-.68,6H3A69.19,69.19,0,0,1,4,69.58a22.6,22.6,0,0,1,3.67-9.2A16.78,16.78,0,0,1,15,54.7a29.78,29.78,0,0,1,11.35-1.91,76.2,76.2,0,0,1,8.36.49,77.28,77.28,0,0,0,8.17.48,19.78,19.78,0,0,0,7.49-1.26,11.6,11.6,0,0,0,5.09-4,19,19,0,0,0,2.66-6.32,54.6,54.6,0,0,0,1.36-8.46Z" transform="translate(-3 -33.67)"/></svg>